<?xml version="1.0" encoding="UTF-8"?><svg id="Capa_1" xmlns="http://www.w3.org/2000/svg" viewBox="0 0 289.67 72.6"><path d="m19.22,72.55c-3.36,0-6.18-.54-8.46-1.62s-4.13-2.5-5.56-4.25c-1.43-1.75-2.51-3.67-3.26-5.74-.75-2.07-1.26-4.09-1.53-6.07-.27-1.98-.41-3.72-.41-5.22v-27h9.54v23.9c0,1.89.16,3.83.47,5.83.31,2,.91,3.85,1.8,5.56.88,1.71,2.13,3.09,3.73,4.14,1.6,1.05,3.7,1.58,6.28,1.58,1.68,0,3.27-.28,4.77-.83,1.5-.55,2.81-1.45,3.94-2.68,1.12-1.23,2.01-2.85,2.65-4.86.65-2.01.97-4.46.97-7.33l5.85,2.21c0,4.41-.83,8.3-2.47,11.68-1.65,3.38-4.02,6.01-7.11,7.9s-6.83,2.83-11.2,2.83Zm16.06-1.3v-14.04h-1.12V22.65h9.49v48.6h-8.37Z" style="fill:#1a1a1a; stroke-width:0px;"/><path d="m48.25,71.25V22.65h8.37v11.79l-1.17-1.53c.6-1.56,1.38-2.99,2.34-4.3.96-1.3,2.07-2.38,3.33-3.22,1.23-.9,2.6-1.6,4.12-2.09,1.51-.5,3.07-.79,4.66-.9,1.59-.1,3.12-.02,4.59.25v8.82c-1.59-.42-3.35-.54-5.29-.36-1.93.18-3.71.8-5.33,1.85-1.53.99-2.74,2.19-3.62,3.6-.89,1.41-1.52,2.98-1.91,4.7-.39,1.73-.58,3.55-.58,5.47v24.53h-9.5Z" style="fill:#1a1a1a; stroke-width:0px;"/><path d="m78.99,71.25V6.45h9.45v29.83h-1.08v34.96h-8.37Zm22.86,1.35c-4.65,0-8.55-1.13-11.7-3.4s-5.54-5.33-7.16-9.2-2.43-8.24-2.43-13.1.8-9.22,2.41-13.09c1.6-3.87,3.97-6.92,7.11-9.16,3.13-2.23,7-3.35,11.59-3.35s8.5,1.12,11.81,3.35c3.32,2.24,5.87,5.28,7.67,9.14,1.8,3.85,2.7,8.23,2.7,13.12s-.89,9.23-2.68,13.12c-1.79,3.89-4.32,6.95-7.6,9.2-3.29,2.25-7.19,3.38-11.72,3.38Zm-1.31-8.5c3,0,5.48-.76,7.45-2.29,1.96-1.53,3.43-3.59,4.41-6.19.97-2.59,1.46-5.5,1.46-8.71s-.49-6.06-1.46-8.64c-.98-2.58-2.47-4.64-4.48-6.17-2.01-1.53-4.58-2.29-7.7-2.29-2.94,0-5.36.72-7.27,2.16-1.91,1.44-3.32,3.45-4.23,6.03-.92,2.58-1.37,5.55-1.37,8.91s.45,6.33,1.35,8.91c.9,2.58,2.33,4.61,4.28,6.08,1.95,1.47,4.47,2.21,7.56,2.21Z" style="fill:#1a1a1a; stroke-width:0px;"/><path d="m129.71,71.25V6.45h9.45v29.83h-1.08v34.96h-8.37Zm22.86,1.35c-4.65,0-8.55-1.13-11.7-3.4s-5.54-5.33-7.16-9.2-2.43-8.24-2.43-13.1.8-9.22,2.41-13.09c1.6-3.87,3.97-6.92,7.11-9.16,3.13-2.23,7-3.35,11.59-3.35s8.5,1.12,11.81,3.35c3.32,2.24,5.87,5.28,7.67,9.14,1.8,3.85,2.7,8.23,2.7,13.12s-.89,9.23-2.68,13.12c-1.79,3.89-4.32,6.95-7.6,9.2-3.29,2.25-7.19,3.38-11.72,3.38Zm-1.31-8.5c3,0,5.48-.76,7.45-2.29,1.96-1.53,3.43-3.59,4.41-6.19.97-2.59,1.46-5.5,1.46-8.71s-.49-6.06-1.46-8.64c-.98-2.58-2.47-4.64-4.48-6.17-2.01-1.53-4.58-2.29-7.7-2.29-2.94,0-5.36.72-7.27,2.16-1.91,1.44-3.32,3.45-4.23,6.03-.92,2.58-1.37,5.55-1.37,8.91s.45,6.33,1.35,8.91c.9,2.58,2.33,4.61,4.28,6.08,1.95,1.47,4.47,2.21,7.56,2.21Z" style="fill:#1a1a1a; stroke-width:0px;"/><path d="m194.2,72.6c-3.6,0-6.62-.67-9.04-2-2.43-1.33-4.27-3.11-5.51-5.31-1.25-2.21-1.87-4.63-1.87-7.27,0-2.46.43-4.62,1.31-6.48.87-1.86,2.16-3.44,3.87-4.75,1.71-1.3,3.81-2.36,6.3-3.17,2.16-.63,4.6-1.19,7.33-1.67,2.73-.48,5.6-.93,8.62-1.35,3.02-.42,6.01-.84,8.98-1.26l-3.42,1.89c.06-3.81-.74-6.64-2.41-8.48-1.67-1.84-4.52-2.77-8.57-2.77-2.55,0-4.89.59-7.02,1.78-2.13,1.19-3.62,3.14-4.46,5.87l-8.77-2.7c1.2-4.17,3.49-7.48,6.86-9.94s7.87-3.69,13.48-3.69c4.35,0,8.14.74,11.36,2.23,3.22,1.49,5.59,3.83,7.09,7.04.78,1.59,1.26,3.27,1.44,5.04.18,1.77.27,3.68.27,5.72v29.92h-8.33v-11.12l1.62,1.44c-2.01,3.72-4.57,6.49-7.67,8.3-3.11,1.82-6.92,2.72-11.45,2.72Zm1.67-7.7c2.67,0,4.96-.47,6.88-1.42,1.92-.95,3.46-2.15,4.63-3.62s1.93-3,2.29-4.59c.51-1.44.8-3.06.88-4.86.07-1.8.11-3.24.11-4.32l3.06,1.12c-2.97.45-5.67.86-8.1,1.21-2.43.36-4.63.71-6.59,1.06-1.96.35-3.71.76-5.24,1.24-1.29.45-2.44.99-3.44,1.62-1.01.63-1.8,1.4-2.38,2.29-.59.9-.88,2-.88,3.29s.32,2.42.95,3.49c.63,1.07,1.59,1.91,2.88,2.54,1.29.63,2.94.94,4.95.94Z" style="fill:#1a1a1a; stroke-width:0px;"/><path d="m223.68,71.25V22.65h8.42v14.04h1.12v34.56h-9.54Zm42.67-35.36c.27,1.06.48,2.1.62,3.14.27,1.98.41,3.72.41,5.22v27h-9.54v-23.9c0-1.89-.16-3.83-.47-5.83-.32-1.99-.92-3.85-1.8-5.56-.89-1.71-2.13-3.09-3.74-4.14-1.61-1.05-3.7-1.58-6.28-1.58-1.68,0-3.27.28-4.77.83-1.5.56-2.81,1.45-3.94,2.68-1.12,1.23-2.01,2.85-2.66,4.86-.65,2.01-.97,4.46-.97,7.33l-5.85-2.21c0-4.41.82-8.3,2.47-11.68,1.65-3.38,4.02-6.01,7.11-7.9,3.09-1.89,6.82-2.83,11.21-2.83,1.87,0,3.58.17,5.11.5,0,0,1.33,5.03,4.33,8.03,5,5,8.75,6.01,8.75,6.01Z" style="fill:#1a1a1a; stroke-width:0px;"/><path d="m273.17,32.88c-4.54,0-8.43-1.62-11.66-4.85s-4.85-7.12-4.85-11.66,1.62-8.35,4.85-11.56c3.23-3.21,7.12-4.82,11.66-4.82s8.25,1.61,11.56,4.82,4.95,7.06,4.95,11.56c0,3.03-.77,5.79-2.3,8.29s-3.54,4.49-6.02,5.98-5.2,2.24-8.18,2.24Z" style="fill:#ff344a; stroke-width:0px;"/></svg>